<svg width="39" viewBox="0 0 39 44" fill="none" xmlns="http://www.w3.org/2000/svg">
<g id="Group 1">
<g id="Ellipse 1" filter="url(#filter0_i_6_5)">
<ellipse cx="19.5" cy="23.6104" rx="18.5" ry="18.3896" fill="#FFD970" fill-opacity="0.7"/>
</g>
<g id="Ellipse 2" filter="url(#filter1_d_6_5)">
<ellipse cx="17.2464" cy="9.72229" rx="7.51045" ry="8.83582" transform="rotate(-6.08355 17.2464 9.72229)" fill="white"/>
</g>
<g id="Vector 1" filter="url(#filter2_d_6_5)">
<path d="M13.7015 11.4612C11.7576 11.7704 10.2776 10.8169 9.7806 10.3015C9.47134 9.19701 9.72537 7.0985 10.4433 5.60745C11.1612 4.11641 13.8672 -1.24031 20.5493 1.90745C24.8015 4.83432 24.8015 9.4179 24.7463 9.52835C23.9069 9.74925 21.3408 7.96367 20.1627 7.04327C18.8189 8.38705 15.6454 11.1519 13.7015 11.4612Z" fill="#FFC72C"/>
</g>
<g id="Vector 2" filter="url(#filter3_d_6_5)">
<path d="M9.17313 20.6836L1.38657 27.1448C1.91672 30.8558 4.29502 34.1766 5.41791 35.3731L10.9403 28.8567C10.9403 39.8462 4.44597 36.0027 10.9403 39.8462C17.4346 43.6898 25.3537 41.4477 28.5015 39.8462L29.109 28.8567C30.0846 31.3418 32.4003 36.0579 33.8582 35.0418C35.3161 34.0257 37.0428 29.3537 37.7239 27.1448L27.2313 20.6836H9.17313Z" fill="#FFC72C"/>
</g>
</g>
<defs>
<filter id="filter0_i_6_5" x="1" y="5.22089" width="37" height="37.7791" filterUnits="userSpaceOnUse" color-interpolation-filters="sRGB">
<feFlood flood-opacity="0" result="BackgroundImageFix"/>
<feBlend mode="normal" in="SourceGraphic" in2="BackgroundImageFix" result="shape"/>
<feColorMatrix in="SourceAlpha" type="matrix" values="0 0 0 0 0 0 0 0 0 0 0 0 0 0 0 0 0 0 127 0" result="hardAlpha"/>
<feOffset dy="1"/>
<feGaussianBlur stdDeviation="0.5"/>
<feComposite in2="hardAlpha" operator="arithmetic" k2="-1" k3="1"/>
<feColorMatrix type="matrix" values="0 0 0 0 0 0 0 0 0 0 0 0 0 0 0 0 0 0 0.25 0"/>
<feBlend mode="normal" in2="shape" result="effect1_innerShadow_6_5"/>
</filter>
<filter id="filter1_d_6_5" x="8.71893" y="0.899689" width="17.0548" height="19.6452" filterUnits="userSpaceOnUse" color-interpolation-filters="sRGB">
<feFlood flood-opacity="0" result="BackgroundImageFix"/>
<feColorMatrix in="SourceAlpha" type="matrix" values="0 0 0 0 0 0 0 0 0 0 0 0 0 0 0 0 0 0 127 0" result="hardAlpha"/>
<feOffset dy="1"/>
<feGaussianBlur stdDeviation="0.5"/>
<feComposite in2="hardAlpha" operator="out"/>
<feColorMatrix type="matrix" values="0 0 0 0 0 0 0 0 0 0 0 0 0 0 0 0 0 0 0.25 0"/>
<feBlend mode="normal" in2="BackgroundImageFix" result="effect1_dropShadow_6_5"/>
<feBlend mode="normal" in="SourceGraphic" in2="effect1_dropShadow_6_5" result="shape"/>
</filter>
<filter id="filter2_d_6_5" x="8.65112" y="0.93306" width="17.1059" height="12.5885" filterUnits="userSpaceOnUse" color-interpolation-filters="sRGB">
<feFlood flood-opacity="0" result="BackgroundImageFix"/>
<feColorMatrix in="SourceAlpha" type="matrix" values="0 0 0 0 0 0 0 0 0 0 0 0 0 0 0 0 0 0 127 0" result="hardAlpha"/>
<feOffset dy="1"/>
<feGaussianBlur stdDeviation="0.5"/>
<feComposite in2="hardAlpha" operator="out"/>
<feColorMatrix type="matrix" values="0 0 0 0 0 0 0 0 0 0 0 0 0 0 0 0 0 0 0.25 0"/>
<feBlend mode="normal" in2="BackgroundImageFix" result="effect1_dropShadow_6_5"/>
<feBlend mode="normal" in="SourceGraphic" in2="effect1_dropShadow_6_5" result="shape"/>
</filter>
<filter id="filter3_d_6_5" x="0.386566" y="20.6836" width="38.3373" height="23.2849" filterUnits="userSpaceOnUse" color-interpolation-filters="sRGB">
<feFlood flood-opacity="0" result="BackgroundImageFix"/>
<feColorMatrix in="SourceAlpha" type="matrix" values="0 0 0 0 0 0 0 0 0 0 0 0 0 0 0 0 0 0 127 0" result="hardAlpha"/>
<feOffset dy="1"/>
<feGaussianBlur stdDeviation="0.5"/>
<feComposite in2="hardAlpha" operator="out"/>
<feColorMatrix type="matrix" values="0 0 0 0 0 0 0 0 0 0 0 0 0 0 0 0 0 0 0.25 0"/>
<feBlend mode="normal" in2="BackgroundImageFix" result="effect1_dropShadow_6_5"/>
<feBlend mode="normal" in="SourceGraphic" in2="effect1_dropShadow_6_5" result="shape"/>
</filter>
</defs>
</svg>
